<?xml version="1.0" encoding="UTF-8"?><svg xmlns="http://www.w3.org/2000/svg" viewBox="0 0 1920 262"><defs><style>.cls-1{fill:#5d5934;}.cls-2,.cls-3,.cls-4,.cls-5{stroke-linecap:round;}.cls-2,.cls-3,.cls-4,.cls-5,.cls-6{fill:none;}.cls-2,.cls-3,.cls-5{stroke-linejoin:round;}.cls-2,.cls-4,.cls-6{stroke:#fff;}.cls-2,.cls-6{stroke-width:2px;}.cls-3,.cls-5{stroke:#979179;}.cls-7{fill:#9c854f;}.cls-4,.cls-6{stroke-miterlimit:10;}.cls-5{stroke-width:1px;}</style></defs><g id="sky"><path class="cls-2" d="M-.23,17.23c22.36.61,44.85,2,66.66,1.92,23.95-.08,49.12-1.2,72.96-2.02,24.88-.86,27.97-2.24,46.4,1.27,33.87,6.44,70,4.26,106.59,4.19,21.21-.04,44.19-.34,65.05-1.27,24.91-1.12,32.91-1.74,55.45.85,18.84,2.16,46.25,2.79,66.6,3.12,21.38.35,32.44,2.8,53.31,5.5,12.11,1.57,25.53,1.33,37.48,2.89,10.17,1.32,8.52,2.36,16.33,4.34,17,4.32,43.89,4.95,64.02,7.24,11.11,1.26,16.11,3.51,25.58,5.21,9.52,1.71,20.82,2.78,30.7,4.48,17.63,3.03,39.31,3.43,56.33,5.89,5.15.74,9.39,2.64,14.97,3.48,8.6,1.29,17.27,1.14,26.02,2.01,14.41,1.43,25.19,4.76,40.26,6.16,9.33.86,48.13,12.73,56.65,13.11,10.9.48,22.33,2.12,33.96,2.78,23.91,1.35,39.08,3.73,60.17,6.29,49.13,5.94,156.06,21.45,171.11,21.19"/><path class="cls-2" d="M400.79,72.98c7.84-.19,15.67-.37,23.48-.43,45.82-.33,94.11.67,139.15,2.93,41.06,2.06,78.32,5.83,117.4,9.95,17.62,1.86,33.94,4.85,51.69,6.47,22.94,2.09,50.49,2.24,74.29,2.8,28.01.65,54.35,1.55,81.21,3.69"/><path class="cls-2" d="M-.22,37.87c27.23-1.03,54.84-3.73,81.56-1.46,35.05,2.97,67.7,8.81,98.71,14.16,33.95,5.86,68.69,11.43,104.84,16.08,5.51.71,10.99,1.44,16.5,2.15"/><path class="cls-2" d="M1096.62,144.24c7.41-2.25,14.87-.06,22.26-1.98,8.69-2.26,15.27-8.58,22.6-12.57,7.45-4.06,18.65-5.96,25.08-12.07,7.42-7.05,4.62-19.39,18.52-18.28,8.32.67,17.35,16.13,28.74,7.67,9.36-6.95-2.27-26.83,13.14-29.15,8.69-1.31,17.58,22.38,30.78,8.36,4.52-4.81,1.7-11.93,5.18-17.81,3.15-5.31,8.37-7.41,13.74-10,11.26-5.44,32.35-10.37,43.58-5.09,11.32,5.32,15.71,19.52,29.46,4.49,8.45-9.24,6.57-24.62,16.42-33.81,10.15-9.46,37.1-17.91,50.51-13.59,7.75,2.49,10.15,10.27,19.22,9.75"/><path class="cls-2" d="M1143.92,150.76c12.65-8.81,26.51-22.77,43.11-22.4,12.72.28,22.86,7.51,35.73,1.6,9.48-4.36,10.62-12.54,18.04-19.13,9.63-8.56,20.22-9.36,32.15-7.91,28.3,3.44,48.58,2.63,75.36-10.31,11.37-5.49,19.94-13.23,34.12-10.32,14.29,2.93,14.64,9.22,30.5,5.55,13.91-3.21,29.71-8.72,39.86-18.92"/><path class="cls-2" d="M1252.14,164.05c25.11-37.2,67.47-48.21,68.66-15.84"/><path class="cls-2" d="M1320.8,150.58c12.1-8.5,26.66-12.16,39.32-19.76,9.38-5.63,16.71-13.24,26.34-18.59,8.36-4.64,29.82-12.84,39.29-9.22,9.38,3.58,2.54,8.55,7.31,12.48,10.69,8.83,16.59-2.08,26.51-5.13,13.16-4.04,28.41-.6,32.83,10.53,2.98,7.52,1.6,25.21-10.56,19.12"/><path class="cls-2" d="M1859.36,122.86c-15.95,4.69-48.31-17.13-60.52-2.8,14.51-16.37-23.43-31.61-38.48-9.08-16.45,24.62-21.52,4.69-34.26-.83-9.63-4.17-19.26-.02-28.99-.79,17.28-9.01-1.11-29.9-16.1-17.32,6.18-10.09,1.65-26.44-6.98-33.87-10.28-8.85-16.9-2.75-28.26-.19-5.24-24.49-17.87-31.54-43.24-30.16-28.6,1.56-36.83,34.36-30.94,50.26,3.12,8.44,14.29,14.88,21.37,18.38-10.17,3.96-25.09-.49-36.42,5.12-8.06,3.99-6.33,10.67-11.63,15.27-6.83,5.94-12.04,2.06-20.53,6.23-7.05,3.6-9.98,11.64-15.11,17.53-8.54,9.8-19.45,17.48-30.99,23.71"/></g><g id="mountains"><path class="cls-3" d="M1920,122.41c-11.81,1.02-23.53,2.85-35.06,6.11-24.11,6.8-46.36,20.66-72.46,16.42-12.18-1.98-23.39-7.7-35.2-11.28-31.38-9.54-64.54-3.38-95.21,5.81-29.16,8.75-59.34,13.41-88.21,23.34-16.91,5.82-40.25,21.69-60.83,34.28-9.07,5.54-17.61,10.45-24.82,13.58"/><path class="cls-3" d="M840.81,208.71c-23.2,12.75,62.07,12.05,84.7,12.57,37.18.85,68.18,1.71,102.38,6.76,108.73,16.05,241.16,22.45,358.73,13.78"/><path class="cls-3" d="M1591.79,163.51c-12.13-3.82-29.4-15.75-41.47-17.05-9.62-1.04-20.34,5.3-29.42,8.02-21.32,6.39-45.12,11.25-67.56,13.32-7.86-2.87-24.66-16.28-32.99-14.44-3.98.88-21.6,10.26-34.89,13.52-11.88,2.92-45.91,5.8-55.77-.29-5.15-3.18-10.15-5.49-16.6-6.52-6.25-1-7.63,2.42-13.39,4.32-22.02,7.26-23.61,11.3-47.21,11.49-16.35.13-30.12-7.45-44.43-7.93-13.89-.47-31.75,7.61-46.4,9.06-16.23,1.6-32.41,2.27-48.7,3.45-29.96,2.17-60.68,2.7-90.11,7.87"/><path class="cls-3" d="M.08,219.8c28.42,1.05,154.58-50.73,167.38-55.69,21.22-8.21,41.63-17.59,61.89-27.73,21.07-10.55,42.27-20.58,64.14-29.76,17.57-7.38,36.69-6.76,55.89-5.66,26.98,1.54,55.25,14.45,80.83,22.2,14.76,4.47,29.87-4.04,44.45.95,15.24,5.22,25.75,14.63,38.86,23.01,24.53,15.68,66.76,39.91,86.34,54.59"/><path class="cls-3" d="M.19,222.41c28.42,1.05,152.22-47.7,165.01-52.65,21.22-8.21,41.63-17.59,61.89-27.73,21.07-10.55,42.27-20.58,64.14-29.76,17.57-7.38,36.69-6.76,55.89-5.66,26.98,1.54,55.25,14.45,80.83,22.2,14.76,4.47,29.87-4.04,44.45.95,15.24,5.22,25.75,14.63,38.86,23.01,24.53,15.68,66.2,29.55,88.04,48.75"/><path class="cls-5" d="M-.06,216.06c80.03-18.64,181.9-81.39,251.7-120.58,22.22-12.47,45.61-23.95,68.31-35.66,19.94-10.29,36.98-4.27,56.72,3.54,52.15,20.63,102.75,37.41,158.19,50.8,27.71,6.69,55.23,13.1,81.59,23.62,32.9,13.13,138.47-41.02,171.71-28.86,46.59,17.04,87.66,13.55,135.61,27.28,26.05,7.46,34.67-3.02,62.02-2.1-.89.26,124.44,30.12,172.79,42.71"/><path class="cls-3" d="M202.06,123.7c-5.13,1.48-11.87.31-17.17-.37-16.81-2.17-33.88-4.01-50.61-6.68-25.81-4.12-49.09-13.96-72.89-23.2-12.26-4.76-23.38-9.78-35.82-12.84-7.18-1.76-19.05-4.41-25.45-7.01"/><path class="cls-3" d="M182.08,135c-5.13,1.48-13.36.31-18.65-.37-16.81-2.17-33.88-4.01-50.61-6.68-16.77-2.68-32.75-8.06-48.67-13.81-14.64-5.29-31.55-1.71-47.08,1.37-5.7,1.13-11.36,2.52-17,4.05"/><path class="cls-3" d="M170.37,141.56c-5.13,1.48-17.36-.16-22.66-.85-16.81-2.17-31.71-4.45-48.44-7.12-20.55-3.28-42.89-6.18-63.8-5.17-8.89.43-18.38,2.1-26.83,5.37-2.98,1.15-5.88,2.27-8.74,3.36"/><path class="cls-3" d="M145.38,155.19c-5.13,1.48-13.92.46-19.22-.23-16.81-2.17-33.88-4.01-50.61-6.68-17.34-2.77-35.74-6.41-53.04-.41-7.69,2.67-14.8,7.86-22.08,11.32-.2.09-.4.19-.59.28"/><path class="cls-3" d="M624.53,215.63c16.62,7.53,44.19,17.67,102.09,19.77,11.61.42,44.21-1.05,76.84-12.63,6.77-2.4,15.28-13.95,21.97-18.41,17.05-11.36,51.57,8.76,62.76-6.42,5.43-7.36-3.65-14.31.93-21.09,6.34-9.37,40.34-1.04,49.56-.85,21.19.43,42.25-1.33,62.59-7.25,15.87-4.62,24.24-11.26,36.36-21.33"/><path class="cls-3" d="M1554.8,186.81c38.09-15.34,148.41-45.84,175.43-48.76,41.79-4.52,74.4,13.91,100.21,17.84,10.09,1.53,48.32,1.37,89.56-15.9"/><path class="cls-3" d="M629.47,139.82c8.5.36,61.36.68,69.23,3.86,12.54,5.08,25.11,10.33,37.72,15.14,19.23,7.34,41.14,5.51,61.27,6.59"/><path class="cls-3" d="M-.09,217.4c63.01-11.76,117.51-45.05,175.89-69.78,51.74-21.92,96.52-59.71,150.47-76.2,27.96-8.55,48.92,1.33,72.57,14.17,15.07,8.18,28.89,10.46,44.91,13.44,15.11,2.82,33.76,5.45,47.12,13.06,15.71,8.94,24.32,19.07,42.83,25.31,36.33,12.24,69.09,28.53,107.19,35.35,18.81,3.37,37.61,7.24,56.61,9.81,16.64,2.25,36.3,7.84,53.14,6.87"/><path class="cls-3" d="M1532.56,197.33c.16-.08.31-.16.47-.24,10.59-5.43,21.64-10.83,32.74-14.05,33.62-9.75,67.88-4.91,100.65-19.05,27.38-11.82,62.86-21.45,91.65-7.78,13.59,6.45,21.69,13.92,34.67,17.99,2.45.77,5.07,1.41,7.94,1.91,20.19,3.49,39.24,8.7,59.61,10.76,16.73,1.69,31.82.63,48.44-.74,3.5-.29,7.3-.3,11.27-.21"/><path class="cls-3" d="M1782.92,170.24c2.65,1.83,6,3.11,9.82,3.96,17.63,3.93,45.23-1.24,59.33-2.89,22.74-2.66,45.34-4.71,67.93-7.19"/><path class="cls-3" d="M593.09,200.76c-24.25-16.01-56.17-21.03-80.69-36.71-13.11-8.38-23.62-17.79-38.86-23.01-14.58-4.99-29.7,3.52-44.45-.95-25.58-7.75-53.85-20.66-80.83-22.2-19.2-1.1-38.32-1.71-55.89,5.66-21.87,9.18-43.07,19.21-64.14,29.76-8.47,4.24-16.97,8.34-25.54,12.28"/><path class="cls-3" d="M124.59,194.51C81.78,207.57,19.55,225.03-.06,224.62"/><path class="cls-3" d="M397.38,179.73c-7.85.46-26.22-10.41-33.73-12.82-8.85-2.85-18.52-4.89-27.71-2.78-17.93,4.11-37.37,2.74-55.72,3.64-8.74.43-18.17,1.38-27.28.79-9.24-.6-28.39-4.44-50.25-2.95"/><path class="cls-3" d="M202.69,165.6c-8.88.6-18.2,2.08-27.5,5.01-19.73,6.23-34.47,14.13-50.6,23.89"/><path class="cls-3" d="M124.59,194.51c-4.49,2.72-9.08,5.57-13.93,8.58-22.72,14.12-56.35,24.15-73.55,29.08"/><path class="cls-3" d="M374.46,171.57c11.54-2.38,17.33-6.77,28.87-9.99,69.22-19.34,118.51,14.74,125.77,15.84"/><path class="cls-3" d="M-.66,185.16c13.78-6.35,27.89-16.12,41.1-17.36,17.21-1.62,36.74,5.17,53.68,13.07"/></g><g id="ground_back"><path class="cls-1" d="M1848.75,216.75c-19.17-9.04-36.75-22.76-55.11-34.13-18.1-11.21-31.87-2.62-51.64-5.51-7.99-1.17-14.71-5.83-22.86-7.19-10.4-1.73-14.94,3.44-23.63,4.27-17.01,1.63-27.36-10.83-45.83-4.7-13.67,4.54-22.61,16.22-34.81,23.12-11.57,6.54-18.17,4.49-30.23,6.44-31.17,5.06-58.84,21.52-91.16,23.88-23.4,1.71-48.86-10.39-71.62-1.52-10.8,4.21-15.93,12.68-27.26,15.07-12.7,2.69-25.64-4.61-38,2.45-33.98,19.4-56.93,12.84-94.7,15.06-45.87,2.7-91.64,7.8-137.63,8.17-45.1.36-90.87-12.12-136.72-13.36-16.27-.44-32.95-3.43-49.01-2.61-15.37.79-29.98,7.25-45.25,8.86-49.51,5.2-99.36,10.23-149.21,7.63-47.24-2.46-85.91-17.33-130.21-29.57-34.33-9.48-72.82-10.07-108.66-9.99-37.68.08-87.73,5.83-121.83-12.18-11.55-6.1-22.59-19.85-35.19-23.09-15.04-3.86-37.74,1.78-53.47-.55-15.42-2.28-30.21,8.91-39.81,9.88-7.93.8-41.32-4.56-48.37-.74-8.68,4.7-11.95,12.16-22.47,14.99-10.63,2.86-21.55-.02-32.01,2.61-15.46,3.88-28.39,15.02-44.14,16.84-19.9,2.3-42.21,3.41-62.36,2.39-8.7-.44-24.79-2.24-30.58,5.65-7.63,10.4,4.38,19.05,15.38,24.02,4.13,1.86,1833.36-.41,1833.36-.41,0,0,18.33-8.9,19.82-15.16,4.64-19.45-22.58-24.87-34.82-30.65Z"/></g><g id="colours"><path class="cls-7" d="M1890.26,193.7c-49.72-5.55-99.19-13.82-149.52-13.52-11.02.07-22.04.34-33.05.82-36.99,1.61-74.67,15.3-111.09,20.89-22.26,3.42-43.38-2.32-65.51,2.23-57.93,11.9-115.1,31.66-172.91,44.23-62.44,13.57-120.36,14.97-183.53,8.39-57.74-6.02-114.09-24.09-172.5-27.04-67.43-3.4-134.75,3.96-201.87,9.26-52.12,4.12-118.46,16.84-164.19-16-49.38-35.46-111.22-53.2-172.12-50.61-78.16,3.32-157.17,26.32-233.83,40.67C155.67,226.97,75.79,237.58.01,230.45v31.16s1920.55.4,1920.55.4l-.14-64.8c-11.32-1.18-20.68-2.44-30.16-3.5Z"/></g><g id="ground"><path class="cls-4" d="M0,236.09c31.21,3.46,117.15-.35,134.84-1.52"/><path class="cls-4" d="M87.95,241.61c-31.58,6.24-61.57,14.66-82.5,20.39"/><path class="cls-4" d="M87.95,241.61c15.55-3.07,31.47-5.61,46.89-7.04"/><path class="cls-4" d="M134.84,234.57c1.97-.13,3.1-.23,3.21-.28-1.07.09-2.14.18-3.21.28"/><path class="cls-4" d="M85.33,262c9.64-9.38,21.87-17.96,31.17-21.13-16.17,1.07-53.31,10.92-76.27,21.13"/><path class="cls-4" d="M89.34,245.86c-8.77,2.52-21.08,8.73-33.42,16.14"/><path class="cls-4" d="M523.78,201.06c-47.61-10.59-70.44-5.84-111.33,8.09-27.97,9.53-47.2,24.75-81.08,29.65-16.85,2.43-43.67-1.69-61.48-4.66-30.37-5.05-86.76-17.23-144.24,27.86"/><path class="cls-4" d="M261.67,225.2c15.14,3.48,30.37,7.66,45.99,6.98,16.21-.7,31.19-7.25,45.73-13.9,16.01-7.33,74.79-38.3,147.35-36.51,21.82.54,69.28,10.37,106.16,33.51,70.39,44.14,107.61,43.64,167.51,44.14,25.61.21,89.22-8.75,119.15-9.32,42.55-.8,80.59,7.54,113.3,11.9"/><path class="cls-4" d="M242.5,222.05c-19.17-1.48-45.97.42-68.64,6.3-28.33,7.35-51.04,23.58-62.96,33.65"/><path class="cls-4" d="M261.67,225.2c-2.25-.52-4.49-1.02-6.74-1.49-3.58-.75-7.79-1.3-12.43-1.66"/><path class="cls-4" d="M375.49,262c8.45-16.4,20.59-32.6,39.72-45.66-31.91,18.35-53.74,36.16-87.09,40.14-16.79,2.01-52.29.92-68.89-2.26-37.33-7.14-56.71-.28-68.02,7.78"/><path class="cls-4" d="M242.5,222.05c38.24-3.47,157.53-48.72,214.57-49.35"/><path class="cls-4" d="M242.5,222.05s0,0-.01,0"/><path class="cls-4" d="M221.2,221.67c20.71-.38,81.71-24.84,139.87-36.14"/><path class="cls-4" d="M683.71,262c-77.71-26.84-136.52-66.54-199.79-64.99-38.62.95-81.05,26.13-108.05,37.13-28,11-47.63,17.77-88,15-23.29-1.6-49.91-10.13-72.86-8.24-27.6,2.28-46.51,13.2-56.86,21.09"/><path class="cls-4" d="M261.67,225.2s-.07.01-.1.02"/><path class="cls-4" d="M261.67,225.2c60.97-12.06,131.91-42.55,196.91-49.45,42.36-4.5,73.69,1.76,106.95,11.43"/><path class="cls-4" d="M87.95,241.61c.83-.12,1.54-.24,2.1-.36"/><path class="cls-4" d="M0,244.66c19.29.6,73.36-.99,87.95-3.06"/><path class="cls-4" d="M1920,245.2c-127.16-36.07-188.67-11.74-215.23-4.4-40.17,11.1-48.22,11.16-83.63,5.01-16.78-2.91-29.74-15.06-62.79-18.23-29.93-2.87-56.62,13.37-84.77,22.35-20.23,6.45-30.91,7.72-54.23,8.3-19.94.49-33.51-4.14-66.67-3.89-13.17.1-39.76,3.97-60.33,7.67"/><path class="cls-4" d="M1607,223.94c53.08-3.11,91.6-32.57,125.93-33.04,80.43-1.09,130.35,13.06,187.07,20.23"/><path class="cls-4" d="M1407.37,236.52c16.19-4.52,26.1-7.68,40-10.52,24.43-4.99,49.79-10.01,74.68-11.69,20.29-1.37,55.63,2.97,58.58,3.27,19.01,1.87,38.73,2.2,56.94-4.3,16.71-5.97,32.79-15.9,49.69-21.33,38.53-12.39,70.84-7.53,100.75-5.55,29.08,1.93,95.21,10.43,131.98,15.81"/><path class="cls-4" d="M865.19,241.15c69.84-7.93,153.49,14.95,242.02,20.85"/><path class="cls-4" d="M865.19,241.15s-.06,0-.08,0"/><path class="cls-4" d="M969.57,233.44c32.64,2.88,204.03,30.37,233.66,26.08"/><path class="cls-4" d="M1680.03,262c12.24-3.74,24.38-7.94,36.59-11,20.61-5.16,41.27-9.21,62.51-9.09,24.81.14,45.66-.11,70.06,3.63,22.84,3.5,47.38,8.36,70.83,13.48"/><path class="cls-4" d="M1902.24,262c-30.66-6.44-70.62-13.55-131.05-12.53-29.12.5-51.2,6.51-68.47,12.53"/><path class="cls-4" d="M1920,252.16c-45.79-10.09-90.97-19-137.02-17.59-27.94.85-61.37,7.43-88.48,14.16-12.11,3.01-24.11,8.14-36.61,8.1-35.63-.11-62.16-17.16-90.39-21.08-17.14-2.37-25.74-1.37-38.85,2.32-26.12,7.37-50.84,20.02-78.04,23.28-2.44.29-4.88.51-7.33.64"/><path class="cls-4" d="M698.79,244.67c26.73,5.27,92.7,10.76,132.62,4.01,8.25-1.39,20.1-4.38,33.78-7.54"/><path class="cls-4" d="M1151.12,262c-74.16-4.68-130.28-15.61-157.95-22.88-15.88-4.17-29.17-7.65-47.69-8.5-26.05-1.2-56.06,4.94-80.29,10.53"/><path class="cls-4" d="M1369.26,246.24c59.54-11.62,87.86-18.5,124.52-22.31,21.74-2.26,69-4.02,83.58-3.39,28.82,1.26,62.31,11.49,91.16,11.71,17.85.14,35.9-.04,53.25-4.47,16.66-4.25,45.18-18.82,111.43-16.69,18.97.61,70.38,6.44,86.8,7.92"/><path class="cls-4" d="M1625.26,262c-13.79-6.89-26.8-12.78-42.17-16.04-12.06-2.56-24.61-2.78-36.76-.69-16.94,2.92-32.02,11.63-48.48,16.24-.61.17-1.22.33-1.84.48"/><path class="cls-4" d="M1599.89,262c-2.25-.87-4.47-1.68-6.64-2.39-9.8-3.17-16.44-5.02-26.88-4.92-12.55.12-25.44,2.8-37.53,7.31"/><path class="cls-4" d="M655.36,262c-58.6-20.46-113.57-53.41-172.09-53.41s-74.99,32.62-81.17,53.41"/><path class="cls-4" d="M633.7,262c-65.31-18.21-148.2-60.84-192.28-37.47-14.14,7.5-25.6,18.11-24.28,37.47"/><path class="cls-4" d="M599.64,262c-15.03-3.32-29.66-7.24-45.04-11.55-23-7-43.35-15.53-66.15-20.56-16.66-3.67-33.28-6.46-48.28,2.54-10.31,5.89-15.83,18.41-11.95,29.56"/><path class="cls-4" d="M560.67,262c-19.78-4.65-44.45-10.85-78.16-20.38-16-4-36.99-10.32-46.31,1.82-3.57,4.66-2.85,11.39.14,18.55"/><path class="cls-4" d="M532.27,262c-16.46-2.77-32.54-5.79-66.54-15.78-8.91-2.72-18.92-6.52-24.11,1.75-2.16,3.44-1.82,8.85.17,14.03"/><path class="cls-4" d="M501.13,262c-10.2-1.78-19.63-3.53-40.62-9.98-5.26-1.68-11.18-4.03-14.25,1.08-1.27,2.12-.55,5.68.91,8.9"/><path class="cls-4" d="M174.85,222.71c-15.32,2.86-41.52,7.77-76.71,39.29"/></g><g id="trees"><path class="cls-1" d="M207.71,193.14c.54.76,1.42,1.73,1.37,2.51-.04.67-.94,1.87-1.5,2.19-.28.16-2.13.39-2.2.1-.19-.75-1.44-1.66-1.97-2.27-1.33-1.53-2.62-3.09-4.24-4.33-1.5-1.14-2.91-2.38-4.32-3.64-1.16-1.03-2.43-2.02-3.83-2.71-1.5-.74-3.1-.75-4.75-.64-1.23.08-2.45.28-3.67.44-.92.12-3.07,1.03-3-.56,1.56.07,3.08.01,4.65-.04,1.86-.07,3.44-1.18,5.35-.59-.74-.23-1.96-1.51-2.35-2.16-.33-.53-.77-1.07-.91-1.63-.09-.34.88.04.94.08.35.23.47.8.77,1.09.95.96,2.23,1.82,3.29,2.69,1.26,1.02,2.59,2.22,3.97,3.07.75.46,1.38.82,2.04,1.4.65.58,1.39,1.05,2.16,1.47.21.11,1.6.97,1.73.91.57-.26,1.23-.54,1.82-.85-.3-1.83-.97-3.74-2.23-5.13-1.17-1.29-2.19-2.98-3.76-3.85-.74-.41-3-1.14-2.68-2.24,1.34-.09,2.91,2.75,4.32,1.89.91-.56.71-2.2,1.01-3.08,1.83-.26-.15,3.24.28,4.06.4.76,1.07,1.51,1.54,2.24.65,1.02,1.25,2.11,1.87,3.16.54.91,1.1,1.37,2.1,1.85,1.25.59,2.84-.27,3.9-1.02,1.26-.9,4.17-2.93,3.91-4.81-.06-.46-.69-.91-.94-1.26-.59-.85-1.49-3.9-1.38-4.91,2.03-.15.63,3.96,2.27,4.32,1.52.33.99-2.81,2.23-3.29.13,1.78-2.88,4.22-.7,5.49,1.63.95,3.74-.17,5.12-1.29.88-.72,1.28-1.44.69-2.44-.2-.34-1.71-1.81-1.36-2.22.62-.72,1.83,2.76,2.83,2.27.34-.17,1.95-1.98,1.26-.09-.69,1.89-2.77,3.04-4.27,4.21.44.38,1.04-.04,1.51-.19.43-.14,1.07-.23.78.39-.18.39-1.05.46-1.41.54-.93.2-1.87.26-2.8.42-1.65.28-3.17-.56-4.38.76-1.31,1.43-2.59,3.08-4.35,3.97-1.12.57-1.61,2.02-1,3.25.07.14.17.3.29.47Z"/><path class="cls-1" d="M225.6,178.64c-.28.09-.88.14-1.18.23,2.41-1.49.48-3.51-1.43-4,1.43-.19,2.8-1.46,2.21-4.12-1-4.49-4.37-3.74-8.43-3.94,1.52-4.48-.85-3.73-4.61-4.18-.22-.03-.48-.06-.76-.11.02-.13.04-.26.04-.39,0-1.25-.91-2.26-2.03-2.26-.28,0-.55.07-.8.18.14-.29.37-.61.73-.96-1.61-2.54-4.04-.64-5.9,1.17-.29-.37-.66-.67-1.1-.86-1.62-.68-3.6.37-4.42,2.33-.19.45-.3.91-.33,1.36-.79-.47-1.67-1.24-3.17-1.82-3.59-1.39-15.75-4.79-12.65,2.95-.13.09-.26.18-.38.29-1.78.26-5.76.35-6.63,1.06-2.85,2.35,2.61,4.49,1.01,7.18-.55.93-5.06.29-4.01,2.71.18.42.86.63,1.76.73-.53.57-.75,1.22-.51,1.73.05.1.11.19.19.27-.38.33-.63.83-.71,1.54-.53.24-.87.57-.87.95,0,.72,1.21,1.3,2.71,1.3,1.1,0,2.04-.31,2.46-.76.2.1.4.2.61.3-.18.1-.33.22-.45.36-.7.07-1.25.32-1.49.88-.48.26-.8.72-.8,1.25,0,.81.73,1.47,1.64,1.47.28,0,.53-.07.76-.18.14,2.95,8.87,2.13,3.75-2.81-.02,0-.04,0-.05,0,0-.01,0-.02,0-.04.25,0,.52,0,.8-.02-.23-.02-.51-.06-.82-.12-.13-.63-.97-1.12-2-1.12-.09,0-.19,0-.28.02l-.05-1.15c.99,0,1.88-.38,2.48-.98,1.65.18,3.4.17,4.31.37,2.15.47,3.64,2.71,6.09,1.21,2.16-1.32,3.27-1.19,5.58-1.77,2.93-.74,3.76,1.18,3.64-3.34,2.49-1.23,4.01-.24,3.79,2.45,2.6-.46,3.46-1.34,5.64-2.64,0,2.56,2.27,2.24,3.44.6,5.54,7.19,2.66-3.82,7.05-3.29-.19,1.11.49,1.85,1.4,2.12-.68.1-1.2.52-1.29,1.39-1.6-.36-2.96.12-2.67,1.92.42,2.59,5.43,2.18,7.12,2.19l-4.4,1.02c2.48-.08,6.16,1.52,5.03-2.66Z"/><path class="cls-1" d="M322.82,182.2c-.17-1.19-.02-2.37-.3-3.55-.12-.49-.42-.97-.34-1.49.09-.56.05-.77-.3-1.3-.36-.54-.84-1.34-1.53-1.53-.85-.22-1.69.73-2.06,1.38-.22.39-.28.73-.26,1.13,0,.1.01.2.02.31.04.44.09.96.07,1.39-.02.36-.15.62-.29.97-.25.65-.32,1.32-.46,2-.11.56-.31,1.12-.72,1.52-.1.1-.22.19-.25.33-.08.36.69.55.89.69.55.38,1.12.77,1.81.76.37.03.73,0,1.06.09.85-.04,1.68-.13,2.39-.68.6-.47.38-1.3.27-2.03Z"/><path class="cls-1" d="M321.56,172.25c-.04-.18-.09-.34-.17-.47-.04-.06-.08-.12-.13-.16-.48-.4-1.54-.06-2.04.12-.75.27-1.5.66-.89,1.48.3.41.8.64.96,1.15.13.39,0,.72.34.89.18.09.63.07.8-.05.39-.27.06-.87.28-1.22.2-.32.64-.38.82-.72.21-.41.07-.85-.13-1.21-.53-.95-1.4-1.25-2.46-1.08-1.19.19-1.35,1.39-.4,2.09"/><path class="cls-1" d="M321.55,182.66c.18.07.15.24.15.65,0,.83-.03,1.65-.07,2.48-.02.39-.03.77-.03,1.15,0,.14.03.5-.02.61-.05.1-.2.09-.27.1-.14.02-.28.09-.41.08-.01-.45.01-.9,0-1.34s-.07-.91-.1-1.36c-.02-.32,0-.78-.11-1.04-.13-.27-.37-.16-.57-.13-.44.07-.9.12-1.33.35-.05.56-.1,1.14-.12,1.72-.01.5,0,1.01.02,1.51.02.36.11.71.12,1.06-.22-.06-.45.08-.49-.35-.05-.48-.07-.98-.09-1.46-.03-.65-.08-1.23-.26-1.81-.08-.24-.29-.56-.27-.86.03-.38.26-.28.42-.33.56-.17,1.11-.5,1.65-.81.48-.28,1.14-.34,1.64-.26.05,0,.09.02.13.03Z"/><path class="cls-1" d="M336.4,185.26c.18-.02,1.56-.13,1.56-.19.01-.45-.18-.87-.27-1.31-.2-1.03-.49-2.02-.76-3.02-.2-.75-.45-2.25-1.53-1.64-1.26.7-1.35,2.59-1.55,3.84-.08.49-.35,1.36-.19,1.86.07.24.1.22.35.32.76.32,1.6.25,2.4.15Z"/><path class="cls-1" d="M334.54,176.81c.3-.22,1.36-.37,1.68-.07.24.23.15.85.05,1.13-.14.41-.63.68-.57,1.13.04.29.26.57-.19.62-.27.03-.35-.12-.48-.35-.07-.13-.1-.22-.22-.31-.14-.09-.22-.04-.34-.2-.41-.58-.41-1.61.06-1.96Z"/><path class="cls-1" d="M336.66,183.83c.11.07.08.21.04.53-.08.66-.16,1.3-.26,1.95-.05.3-.08.6-.12.91-.01.11-.02.4-.07.48-.04.07-.14.06-.19.06-.09,0-.19.04-.28.03.03-.35.09-.71.12-1.06s.03-.72.05-1.08c.01-.25.07-.61.02-.83-.06-.23-.23-.16-.36-.15-.3.01-.61.01-.91.16-.08.44-.17.89-.23,1.34-.05.4-.09.8-.11,1.19-.01.28.01.57-.01.84-.14-.07-.3.02-.29-.32,0-.38.04-.78.07-1.16.04-.52.05-.97-.02-1.45-.03-.2-.14-.47-.1-.7.05-.3.19-.2.3-.22.39-.08.78-.29,1.16-.49.34-.18.78-.17,1.1-.06.03.01.06.02.08.04Z"/><path class="cls-1" d="M326.79,177.02c-.26.51-.43.95-.56,1.58-.2.92-.47,1.81-.63,2.75-.11.62-.49,1.71-.27,2.34.1.31.15.27.49.4,1.73.65,3.82.03,5.61-.08.03-.78-.26-1.43-.56-2.13-.28-.66-.54-1.49-.88-2.09.02.18.18.46.29.61.19.24.84.72,1.14.43.22-.21-.06-1.1-.07-1.32-.03-.71-.18-1.23-.52-1.84-.56-1.04-1.76-2.52-3-2.16-.53.15-.58.62-.82,1.07-.08.15-.15.29-.22.42Z"/><path class="cls-1" d="M327.33,172.63c.43-.28,1.42-.64,1.87-.25.33.28.21,1.07.07,1.43-.2.51-.89.86-.8,1.43.06.37.36.72-.26.78-.38.04-.49-.15-.68-.44-.11-.16-.14-.28-.31-.39-.19-.12-.32-.05-.48-.25-.58-.73-.08-1.86.58-2.3Z"/><path class="cls-1" d="M329.54,182.47c.16.09.11.26.06.66-.11.83-.22,1.64-.36,2.46-.07.38-.12.76-.17,1.14-.02.14-.03.5-.1.61-.05.09-.19.07-.26.07-.13,0-.27.05-.39.04.04-.44.12-.89.17-1.33s.05-.91.07-1.36c.02-.32.1-.77.02-1.04-.09-.29-.33-.2-.51-.19-.42.02-.85.02-1.28.2-.11.55-.23,1.12-.32,1.69-.07.5-.13,1.01-.16,1.5-.02.36.02.72-.02,1.06-.2-.09-.42.03-.41-.4.01-.48.06-.98.1-1.46.05-.65.08-1.23-.02-1.83-.04-.25-.2-.59-.14-.89.08-.37.27-.25.43-.28.54-.1,1.09-.37,1.63-.62.48-.22,1.1-.21,1.55-.08.05.01.08.03.11.05Z"/><path class="cls-1" d="M325.7,173.64c.08-.21.45-.44.64-.55.46-.29.38-.83.77-1.19.28-.26.71-.39,1.05-.28.5.15.84.44,1.25.86.11.11.6.18.52.47-.09.33-.67.14-.86.17-.3.05-.6.23-.91.3-.81.18-1.63.3-2.44.23Z"/></g><g id="white_line"><path class="cls-6" d="M0,230.18c76.91,7.89,154.37-2.97,229.98-17.31,76.65-14.54,155.66-37.83,233.83-41.18,60.9-2.62,122.75,15.34,172.12,51.24,45.72,33.25,112.07,20.37,164.19,16.2,67.12-5.36,134.44-12.81,201.87-9.37,58.41,2.97,114.76,21.28,172.5,27.37,63.17,6.66,121.09,5.24,183.53-8.5,57.81-12.72,113.95-32.54,171.89-44.59,21.48-4.47,46.24,1.36,68.03-2.07,37.35-5.88,71.94-19.87,109.58-21.53,11.01-.48,22.03-.77,33.05-.83,50.32-.31,99.8,8.07,149.51,13.69,8.87,1,19.34,2.84,29.92,4.04"/></g></svg>