<?xml version="1.0" encoding="UTF-8"?><svg id="trees" xmlns="http://www.w3.org/2000/svg" viewBox="0 0 50 50"><defs><style>.cls-1{fill:#5d5934;}.cls-2{fill:#6a852a;}.cls-3{fill:none;stroke:#b1b5a3;stroke-linecap:round;stroke-miterlimit:10;}</style></defs><path class="cls-1" d="M20.12,33.19c-.4.58-1.07,1.3-1.03,1.89.03.5.71,1.41,1.14,1.66.21.12,1.61.29,1.66.08.14-.57,1.09-1.25,1.49-1.72,1-1.15,1.98-2.33,3.2-3.27,1.13-.86,2.19-1.8,3.26-2.75.88-.78,1.83-1.53,2.89-2.05,1.13-.56,2.34-.57,3.59-.49.93.06,1.85.21,2.77.33.69.09,2.32.78,2.27-.42-1.18.06-2.33.01-3.51-.03-1.4-.05-2.6-.89-4.04-.44.56-.17,1.48-1.14,1.78-1.63.25-.4.58-.81.69-1.23.07-.26-.66.03-.71.06-.26.18-.36.6-.58.83-.72.72-1.68,1.38-2.49,2.03-.95.77-1.95,1.68-3,2.32-.56.35-1.04.62-1.54,1.05-.49.44-1.05.8-1.63,1.11-.16.08-1.2.74-1.31.69-.43-.2-.93-.41-1.38-.64.23-1.38.73-2.82,1.69-3.87.88-.97,1.66-2.25,2.84-2.9.56-.31,2.26-.86,2.02-1.69-1.01-.07-2.2,2.08-3.26,1.42-.68-.42-.54-1.66-.76-2.32-1.38-.19.11,2.45-.21,3.07-.3.57-.81,1.14-1.16,1.69-.49.77-.94,1.59-1.41,2.39-.4.69-.83,1.04-1.58,1.39-.94.45-2.15-.2-2.94-.77-.95-.68-3.15-2.21-2.95-3.63.05-.35.52-.69.71-.95.45-.64,1.12-2.94,1.04-3.71-1.53-.11-.48,2.99-1.71,3.26-1.15.25-.75-2.12-1.68-2.49-.1,1.34,2.18,3.19.53,4.15-1.23.72-2.83-.12-3.87-.97-.66-.54-.97-1.09-.52-1.84.15-.25,1.29-1.36,1.02-1.67-.47-.55-1.38,2.09-2.14,1.71-.26-.13-1.47-1.5-.95-.07.52,1.43,2.09,2.3,3.22,3.18-.33.28-.79-.03-1.14-.14-.32-.1-.8-.17-.59.3.13.29.79.35,1.06.41.7.15,1.41.2,2.12.31,1.24.21,2.4-.42,3.3.57.99,1.08,1.95,2.33,3.29,3,.85.43,1.21,1.53.76,2.46-.05.11-.13.23-.22.35Z"/><path class="cls-1" d="M6.61,22.25c.21.07.66.1.89.17-1.4-.86-.86-1.97.12-2.6.29-.19.29-.59.02-.79-.64-.46-1.04-1.35-.73-2.74.7-3.16,2.96-2.88,5.74-2.95.31,0,.53-.31.45-.6-.74-2.73.99-2.26,3.66-2.58.17-.02.36-.05.57-.09-.02-.1-.03-.2-.03-.3,0-.94.69-1.7,1.53-1.7.21,0,.42.05.6.14-.1-.22-.28-.46-.55-.73,1.12-1.77,2.77-.68,4.12.57.18.16.45.16.63,0,.16-.14.34-.25.53-.33,1.23-.51,2.72.28,3.34,1.76.14.34.22.69.25,1.03.6-.35,1.26-.93,2.39-1.37,2.61-1.01,11.25-3.43,9.76,1.64l.56.87c1.47.16,3.94.26,4.53.74,2.15,1.77-1.97,3.39-.77,5.42.42.7,3.82.22,3.03,2.04-.09.2-.32.34-.66.43-.29.08-.42.39-.3.66s.13.54.02.76c-.04.08-.09.14-.14.2.28.25.48.62.54,1.17.4.18.65.43.65.71,0,.54-.92.98-2.04.98-.83,0-1.54-.24-1.86-.58-.15.08-.31.15-.46.22.14.08.25.17.34.27.53.05.95.24,1.12.67.36.19.6.54.6.95,0,.61-.55,1.11-1.24,1.11-.21,0-.4-.05-.58-.13-.11,2.23-6.69,1.61-2.83-2.12.01,0,.8-.98,1.57-.98.07,0,.14,0,.21.01l.04-.87c-.67,0-1.28-.23-1.72-.6-.1-.08-.22-.13-.35-.12-1.18.11-2.4.11-3.05.26-1.62.35-2.75,2.04-4.6.91-1.63-.99-2.47-.9-4.21-1.34-2.14-.54-2.79.8-2.75-2.2,0-.19-.11-.38-.28-.45-1.53-.64-2.51-.09-2.58,1.42-.02.3-.3.51-.59.44-1.29-.31-1.96-.81-3.03-1.48-.26-.17-.62-.04-.71.26-.3,1.04-1.38.94-2.17.21-.2-.19-.52-.18-.69.03-3.48,4.24-1.98-2.37-4.43-2.9-.27-.06-.5.17-.53.44-.04.32-.19.59-.41.79-.2.18-.19.48,0,.67.1.1.18.22.23.37.08.2.27.33.48.3,1.02-.11,1.81.31,1.62,1.52-.32,1.96-4.1,1.64-5.38,1.65l3.32.77c-1.87-.06-4.65,1.15-3.79-2Z"/><path class="cls-2" d="M50,50c-17.29,0-50,0-50,0v-18.36c27.91,1.5,48.85,17.37,50,18.36Z"/><path class="cls-3" d="M0,33.11s31.84,3.82,40.04,16.89"/><path class="cls-3" d="M-.13,34.39c4.59.84,24.79,6.72,27.08,15.61"/><path class="cls-3" d="M-.13,35.96c4.21,2.31,14.44,6.23,17.72,14.04"/></svg>